<?xml version="1.0" standalone="no"?>
<!DOCTYPE svg PUBLIC "-//W3C//DTD SVG 20010904//EN"
 "http://www.w3.org/TR/2001/REC-SVG-20010904/DTD/svg10.dtd">
<svg version="1.0" xmlns="http://www.w3.org/2000/svg"
 width="225.000000pt" height="225.000000pt" viewBox="0 0 225.000000 225.000000"
 preserveAspectRatio="xMidYMid meet">

<g transform="translate(0.000000,225.000000) scale(0.100000,-0.100000)"
fill="#000000" stroke="none">
<path d="M965 1741 c-183 -45 -342 -160 -439 -319 -26 -41 -47 -64 -63 -67
-12 -3 -33 -7 -46 -10 -42 -8 -92 -49 -115 -95 -20 -40 -22 -58 -22 -195 0
-125 4 -157 19 -191 24 -53 75 -92 137 -103 29 -6 53 -17 59 -27 32 -56 75
-68 101 -29 11 18 9 30 -21 95 -47 103 -58 165 -52 290 6 123 29 199 89 291
73 114 184 203 314 252 50 19 79 22 194 22 115 0 145 -3 202 -23 170 -59 319
-206 378 -375 31 -87 38 -258 15 -346 -36 -138 -132 -282 -208 -310 -16 -6
-78 -11 -139 -11 -95 0 -113 3 -135 20 -21 16 -41 20 -110 20 -80 0 -86 -2
-114 -29 -32 -33 -38 -71 -13 -96 15 -14 46 -16 268 -13 250 3 251 3 301 30
61 31 122 96 165 172 26 46 37 56 58 56 36 1 102 32 129 61 44 49 53 89 53
246 0 123 -4 155 -19 189 -25 54 -78 94 -137 102 -45 7 -50 11 -81 62 -18 30
-72 94 -119 142 -72 72 -103 96 -178 132 -151 74 -320 95 -471 57z"/>
<path d="M785 1379 c-96 -88 -154 -263 -134 -406 13 -94 36 -143 75 -159 29
-12 45 -11 146 10 62 14 140 28 173 31 59 6 207 -6 295 -24 180 -37 168 -36
198 -14 40 29 61 101 62 209 0 143 -50 275 -136 354 -53 48 -78 50 -233 19
-103 -21 -105 -21 -190 -3 -47 10 -114 20 -148 22 -61 4 -62 3 -108 -39z m122
-180 c38 -13 69 -66 60 -101 -13 -51 -41 -73 -92 -73 -37 0 -51 5 -66 24 -43
53 -31 122 25 147 38 16 37 16 73 3z m502 0 c32 -11 61 -52 61 -86 0 -34 -37
-81 -70 -88 -59 -13 -120 34 -120 93 0 34 53 87 91 91 3 1 20 -4 38 -10z"/>
</g>
</svg>
