<svg width="44" height="29" viewBox="0 0 44 29" fill="none" xmlns="http://www.w3.org/2000/svg">
<path id="Vector" d="M43.2225 18.8089C43.1657 21.3166 42.7452 24.1954 41.4838 26.9038C40.8588 28.241 39.8701 28.9607 38.3171 28.9039C36.8095 28.8508 35.3435 28.5933 33.8738 28.3092C30.9684 27.7485 28.0782 27.0932 25.135 26.7599C23.2031 26.5402 21.2599 26.5364 19.3204 26.6765C15.6044 26.9455 11.9907 27.8281 8.34671 28.5402C7.14214 28.7751 5.9262 28.9569 4.68375 28.8925C4.08525 28.8584 3.59281 28.6046 3.15341 28.2258C2.59658 27.7485 2.16475 27.1614 1.86929 26.4871C0.691234 23.8053 0.160921 20.9908 0.210164 18.0703C0.278347 14.1308 1.31625 10.4565 3.27841 7.03975C4.07388 5.64956 5.0436 4.39196 6.06256 3.16466C7.68381 1.21386 9.77856 0.683546 12.2218 1.03204C14.2067 1.31614 16.1158 1.926 18.0704 2.3351C20.9114 2.92981 23.7031 2.7745 26.4986 2.0813C28.3282 1.62675 30.1464 1.08507 32.0442 0.95249C33.8624 0.827487 35.5215 1.23659 36.7981 2.58131C39.605 5.53971 41.5596 8.98676 42.5369 12.9717C42.9687 14.7407 43.2111 16.5324 43.2149 18.8014L43.2225 18.8089ZM28.8964 14.8846C28.8964 17.0968 30.6389 18.8696 32.8283 18.8809C34.9647 18.8923 36.8511 17.0665 36.8322 14.9263C36.817 13.2255 35.5481 10.983 32.8435 10.9792C30.6502 10.9792 28.8926 12.7103 28.8926 14.8846H28.8964ZM6.59667 14.8922C6.56258 17.021 8.34671 18.8355 10.5096 18.8809C12.6195 18.9226 14.4302 17.1385 14.5438 15.0551C14.6575 12.949 12.7862 10.9754 10.5475 10.9679C8.38459 10.9603 6.63455 12.6762 6.60046 14.8884L6.59667 14.8922Z" fill="#015BC4"/>
</svg>
